<svg xmlns="http://www.w3.org/2000/svg" xmlns:xlink="http://www.w3.org/1999/xlink" version="1.1" width="1000" height="1000" viewBox="0 0 1000 1000" xml:space="preserve">
<desc>Created with Fabric.js 3.5.0</desc>
<defs>
</defs>
<rect x="0" y="0" width="100%" height="100%" fill="#ddd"/>
<g transform="matrix(1.4739 0 0 1.4713 498.1688 500.9826)" id="964253">
<path style="stroke: none; stroke-width: 1; stroke-dasharray: none; stroke-linecap: butt; stroke-dashoffset: 0; stroke-linejoin: miter; stroke-miterlimit: 4; is-custom-font: none; font-file-url: none; fill: #555; fill-rule: nonzero; opacity: 1;" vector-effect="non-scaling-stroke" transform=" translate(-480, -576)" d="M 180 936 q -24 0 -42 -18 t -18 -42 V 276 q 0 -24 18 -42 t 42 -18 h 600 q 24 0 42 18 t 18 42 v 600 q 0 24 -18 42 t -42 18 H 180 Z m 86 -157 h 429 q 9 0 13 -8 t -1 -16 L 590 599 q -5 -6 -12 -6 t -12 6 L 446 754 l -81 -111 q -5 -6 -12 -6 t -12 6 l -86 112 q -6 8 -2 16 t 13 8 Z" stroke-linecap="round"/>
</g>
</svg>