<svg xmlns="http://www.w3.org/2000/svg" viewBox="0 -960 960 960"><path d="M747.691-220.001H332.309q-30.308 0-51.308-21t-21-51.308v-535.382q0-30.308 21-51.308t51.308-21h277.692l209.998 209.998v397.692q0 30.308-21 51.308t-51.308 21Zm-167.69-440V-840H332.309q-4.616 0-8.463 3.846-3.846 3.847-3.846 8.463v535.382q0 4.616 3.846 8.463 3.847 3.846 8.463 3.846h415.382q4.616 0 8.463-3.846 3.846-3.847 3.846-8.463v-367.692H580.001Zm-407.692 600q-30.308 0-51.308-21t-21-51.308v-527.69H160v527.69q0 4.616 3.846 8.463 3.847 3.846 8.463 3.846h407.69v59.998h-407.69ZM320-840v179.999V-840v560V-840Z"/></svg>