<svg xmlns="http://www.w3.org/2000/svg" viewBox="0 -960 960 960"><path d="M294.732-148.078q-28.257 0-48.263-20.006-20.006-20.006-20.006-48.263v-501.23h-11.116q-11.654 0-19.865-8.211-8.211-8.212-8.211-19.769 0-11.557 8.211-19.769 8.211-8.211 19.865-8.211h146.268v-.5q0-13.577 9.846-23.423 9.846-9.846 23.616-9.846h170.846q13.577 0 23.423 9.846 9.846 9.846 9.846 23.423v.5h146.543q11.379 0 19.591 8.226 8.211 8.225 8.211 19.658 0 11.653-8.226 19.865-8.225 8.211-19.658 8.211h-11.308v501.23q0 28.257-20.006 48.263-20.006 20.006-48.263 20.006H294.732Zm383.653-569.499H282.423v501.23q0 5.385 3.462 8.847 3.462 3.462 8.847 3.462h371.344q5.385 0 8.847-3.462 3.462-3.462 3.462-8.847v-501.23Zm-395.962 0v513.539-513.539ZM480.404-420.27l82.583 82.487q8.052 8.244 19.609 8.436 11.558.193 20.057-8.403 8.5-8.596 8.5-19.865 0-11.269-8.436-19.898l-82.487-82.583 82.487-82.583q8.052-8.052 8.244-19.513.192-11.462-8.308-20.058-8.499-8.596-19.865-8.596-11.365 0-19.801 8.437L480.5-499.73l-82.679-82.679q-8.052-8.052-19.609-8.244-11.558-.193-20.058 8.403t-8.5 19.865q0 11.269 8.437 19.706L440.77-460l-82.679 82.487q-8.052 8.244-8.244 19.705-.193 11.462 8.307 20.058t19.865 8.596q11.365 0 19.802-8.629l82.583-82.487Z"/></svg>