<svg xmlns="http://www.w3.org/2000/svg"viewBox="0 -960 960 960" ><path d="M216.154-400q-11.634 0-19.855-8.225t-8.221-19.769q0-11.543 8.221-19.755 8.221-8.211 19.855-8.211h224.04q11.414 0 19.649 8.239 8.235 8.239 8.235 19.658 0 11.64-8.235 19.852Q451.608-400 440.194-400h-224.04Zm0-158.385q-11.634 0-19.855-8.224-8.221-8.225-8.221-19.769 0-11.544 8.221-19.755 8.221-8.212 19.855-8.212h381.617q11.413 0 19.649 8.239 8.235 8.24 8.235 19.659 0 11.64-8.235 19.851-8.236 8.211-19.649 8.211H216.154Zm0-157.577q-11.634 0-19.855-8.224-8.221-8.225-8.221-19.769 0-11.544 8.221-19.755 8.221-8.212 19.855-8.212h381.617q11.413 0 19.649 8.24 8.235 8.239 8.235 19.658 0 11.64-8.235 19.851-8.236 8.211-19.649 8.211H216.154Zm304.423 493.653v-54.46q0-6.564 2.462-12.782 2.461-6.218 7.577-11.526l206.307-205.307q6.962-6.962 15.303-10 8.342-3.039 16.991-3.039 8.936 0 17.349 3.385 8.412 3.384 15.318 9.961l37 37.693q6.269 7.153 9.653 15.288 3.385 8.134 3.385 16.73t-3.231 17.038q-3.231 8.442-9.807 15.404L633.576-198.117q-5.308 5.116-11.492 7.577-6.185 2.462-12.815 2.462h-54.461q-14.25 0-24.24-9.991-9.991-9.99-9.991-24.24Zm285.769-214.153-37-37.385 37 37.385Zm-240 202.615h37.908l131.554-132.077-18.341-19-18.57-18.769-132.551 131.846v38Zm151.077-151.077-18.615-18.769 37 37.769-18.385-19Z"/></svg>