<svg xmlns="http://www.w3.org/2000/svg" viewBox="0 -960 960 960"><path d="M204.038-204.038h47.231l410.27-409.963-47.538-47.538-409.963 410.578v46.923Zm-21.729 55.96q-14.25 0-24.24-9.991-9.991-9.99-9.991-24.24v-64.021q0-13.763 5.355-26.395 5.354-12.632 14.914-22.12l500.885-501.154q8.241-7.523 18.255-11.723 10.014-4.2 21.203-4.2 11.19 0 21.692 4.115 10.502 4.116 19.194 12.423l46.423 46.731q8.308 8.192 12.115 18.541 3.808 10.35 3.808 20.935 0 11.484-3.858 21.675-3.858 10.19-12.065 18.385l-501.154 500.77q-9.449 9.56-22.029 14.914-12.58 5.355-26.548 5.355h-63.959Zm574.037-560.961-47.307-47.307 47.307 47.307Zm-118.864 71.557-23.481-24.057 47.538 47.538-24.057-23.481Z"/></svg>