<svg xmlns="http://www.w3.org/2000/svg" viewBox="0 -960 960 960"><path d="M452.424-209.383v-152.732q0-11.462 8.211-19.673 8.211-8.211 19.865-8.211 11.461 0 19.673 8.211 8.211 8.211 8.211 19.673v152.425l63.501-64.425q8.115-8.423 19.577-8.615 11.461-.192 20.268 8.615 8.616 8.808 8.616 20.327 0 11.519-8.616 20.134L504.192-126.116q-5.308 5.308-11.288 7.769-5.981 2.462-12.904 2.462t-12.904-2.462q-5.98-2.461-11.096-7.769L347.847-233.77q-8.616-8.423-8.654-19.826-.039-11.404 8.769-20.211 8.807-8.615 20.019-8.615 11.211 0 20.018 8.615l64.425 64.424ZM208.883-452.424l63.616 62.694q8.423 8.423 8.616 19.884.192 11.461-8.616 20.269-8.807 8.807-20.076 8.807t-20.076-8.807L125.308-456.808q-5.307-5.115-7.769-11.096-2.461-5.981-2.461-12.904t2.461-12.903q2.462-5.981 7.769-11.289l107.846-107.846q8.115-8.115 19.423-8.211 11.307-.096 20.115 8.519 8.307 8.5 8.307 19.461 0 10.961-8.307 19.769l-64.117 64.924h152.733q11.461 0 19.672 8.211 8.212 8.212 8.212 19.673 0 11.654-8.212 19.865-8.211 8.211-19.672 8.211H208.883Zm542.542 0h-152.54q-11.654 0-19.865-8.211-8.212-8.211-8.212-19.865 0-11.461 8.212-19.673 8.211-8.211 19.865-8.211H750.81l-63.309-63.194q-8.423-8.422-8.616-19.884-.192-11.461 8.616-20.268 8.807-8.616 20.326-8.616t20.326 8.616L834.884-505q5.115 5.308 7.673 11.289 2.558 5.98 2.558 12.903t-2.558 12.904q-2.558 5.981-7.673 11.096L727.038-348.962q-8.115 8.115-19.115 8.154-11 .038-19.807-8.769-8.808-8.808-8.808-19.769 0-10.961 8.808-19.769l63.309-63.309ZM452.424-752.233l-64.232 63.925q-8.615 8.423-19.865 8.615-11.25.192-19.865-8.615-8.5-8.808-8.5-20.019 0-11.211 8.808-20.019L456-835.692q5.116-5.115 11.096-7.423 5.981-2.307 12.904-2.307t12.904 2.307q5.98 2.308 11.288 7.423l108.154 108.654q7.923 8.115 8.115 19.365.192 11.25-8.115 19.557-8.808 8.808-19.865 8.808-11.058 0-19.673-8.808l-64.424-64.117v152.541q0 11.653-8.211 19.865-8.212 8.211-19.673 8.211-11.654 0-19.865-8.211-8.211-8.212-8.211-19.865v-152.541Z"/></svg>