<svg xmlns="http://www.w3.org/2000/svg"  viewBox="0 -960 960 960" ><path d="M176.263-188.078q-28.353 0-48.269-19.916-19.916-19.916-19.916-48.3v-447.412q0-28.384 19.916-48.3 19.916-19.916 48.353-19.916h191.306q13.741 0 26.435 5.355 12.693 5.354 22.105 14.878l55.729 55.729h311.815q28.353 0 48.269 19.916 19.916 19.915 19.916 48.353v371.344q0 28.437-19.916 48.353t-48.269 19.916H176.263Zm.084-55.96h607.306q5.385 0 8.847-3.462 3.462-3.462 3.462-8.847v-371.344q0-5.385-3.462-8.847-3.462-3.462-8.847-3.462H449l-72.5-72.5q-1.923-1.923-4.039-2.692-2.115-.77-4.423-.77H176.347q-5.385 0-8.847 3.462-3.462 3.462-3.462 8.847v447.306q0 5.385 3.462 8.847 3.462 3.462 8.847 3.462Zm-12.309 0v-471.924 471.924Zm405.963-170.001v51.116q0 11.654 8.211 19.865 8.211 8.211 19.769 8.211 11.557 0 19.769-8.211 8.211-8.211 8.211-19.865v-51.116h51.308q11.433 0 19.658-8.211 8.226-8.212 8.226-19.769 0-11.558-8.226-19.769-8.225-8.211-19.658-8.211h-51.308v-51.309q0-11.432-8.226-19.658t-19.658-8.226q-11.654 0-19.865 8.226-8.211 8.226-8.211 19.658v51.309h-51.116q-11.654 0-19.865 8.226-8.212 8.225-8.212 19.658 0 11.653 8.212 19.865 8.211 8.211 19.865 8.211h51.116Z"/></svg>