<svg xmlns="http://www.w3.org/2000/svg" viewBox="0 -960 960 960"><path d="M479.615-179.386q-12.346 0-24.346-4.366-12-4.365-21.346-13.403l-52.614-47.884q-108.193-98.116-190.712-190.885-82.519-92.769-82.519-197.352 0-82.701 55.847-138.481t138.648-55.78q46.942 0 93.569 22.154T480-731.959q38.039-51.27 84.215-73.424 46.176-22.154 93.414-22.154 82.687 0 138.49 55.78 55.803 55.78 55.803 138.481 0 105.737-84.193 199.429-84.192 93.693-189.038 188.615l-52.838 48.095q-9.507 9.02-21.699 13.385-12.193 4.366-24.539 4.366Zm-26.49-494.327q-29.817-49.864-67.163-73.864-37.347-24-83.738-24-59.222 0-98.704 39.346-39.482 39.346-39.482 98.843 0 47.716 30.635 99.763 30.634 52.047 76.71 103.47 46.077 51.423 99.962 100.5 53.884 49.077 100.577 91.116 3.462 3.077 8.078 3.077t8.078-3.077q46.693-42.039 100.577-91.116 53.885-49.077 99.962-100.5 46.076-51.423 76.71-103.47 30.635-52.047 30.635-99.763 0-59.497-39.482-98.843-39.482-39.346-98.704-39.346-46.391 0-83.892 24-37.5 24-67.316 73.864-4.684 7.791-11.827 11.387-7.142 3.596-14.845 3.596t-15.038-3.596q-7.335-3.596-11.733-11.387ZM480-503.039Z"/></svg>