<svg xmlns="http://www.w3.org/2000/svg" viewBox="0 -960 960 960"><path d="M601.463-640.923q0-50.962-33.924-81.501-33.923-30.539-90.655-30.539-35.192 0-62.577 14.135-27.385 14.135-47 42.981-10.269 13.846-26.23 17.48-15.961 3.635-29.884-5.865-12.346-7.846-15.519-20.999-3.173-13.153 3.942-24.422 30.269-47.385 75.404-71.942 45.134-24.558 101.864-24.558 90.423 0 145.942 50.75 55.519 50.75 55.519 133.634 0 44.576-20.635 84.25-20.634 39.673-64.172 77.634-40.385 35.346-55.789 58.269-15.404 22.924-18.173 51.232-2.77 15.961-14.058 26.538-11.288 10.576-26.634 10.576-15.345 0-26.383-10.211-11.038-10.211-11.038-24.749 0-40.154 20.769-75.693 20.769-35.538 65.154-72.231 40.653-33.423 57.365-62.192 16.712-28.769 16.712-62.577ZM476.884-104.04q-22.922 0-39.441-16.519-16.519-16.519-16.519-39.441 0-22.922 16.519-39.441 16.519-16.519 39.441-16.519 22.923 0 39.442 16.519 16.519 16.519 16.519 39.441 0 22.922-16.519 39.441-16.519 16.519-39.442 16.519Z"/></svg>