<svg xmlns="http://www.w3.org/2000/svg"  viewBox="0 -960 960 960"><path d="M207.039-148.078q-28.161 0-48.215-20.054-20.054-20.054-20.054-48.215v-528.114q0-28.161 20.054-48.214 20.054-20.054 48.215-20.054h318.5q11.634 0 19.855 8.239t8.221 19.658q0 11.64-8.221 19.851-8.221 8.212-19.855 8.212h-318.5q-5.385 0-8.847 3.462-3.462 3.461-3.462 8.846v528.114q0 5.385 3.462 8.847 3.462 3.462 8.847 3.462h528.113q5.385 0 8.847-3.462 3.462-3.462 3.462-8.847v-318.5q0-11.634 8.225-19.855t19.769-8.221q11.544 0 19.755 8.221 8.211 8.221 8.211 19.855v318.5q0 28.161-20.054 48.215-20.054 20.054-48.215 20.054H207.039Zm479.039-547.308h-51.117q-11.634 0-19.855-8.225-8.221-8.224-8.221-19.768t8.221-19.756q8.221-8.211 19.855-8.211h51.117v-51.308q0-11.413 8.224-19.649 8.225-8.235 19.769-8.235 11.544 0 19.755 8.235 8.212 8.236 8.212 19.649v51.308h51.308q11.413 0 19.649 8.239 8.235 8.24 8.235 19.659 0 11.64-8.235 19.851-8.236 8.211-19.649 8.211h-51.308v51.116q0 11.635-8.24 19.856-8.239 8.221-19.658 8.221-11.64 0-19.851-8.221-8.211-8.221-8.211-19.856v-51.116ZM439.922-318.423l-64.715-82.033q-5.284-6.389-13.509-6.389-8.224 0-13.429 6.731l-60.016 80.31q-7.059 8.803-2.011 18.092 5.048 9.288 15.144 9.288h342.439q10.404 0 15.327-9.288 4.923-9.289-1.461-18.066l-93.395-124.453q-5.297-6.768-13.714-6.768-8.417 0-13.649 6.83l-97.011 125.746Zm31.27-162.077Z"/></svg>