<svg xmlns="http://www.w3.org/2000/svg" viewBox="0 -960 960 960"><path d="M216.347-144.04q-28.437 0-48.353-19.916-19.916-19.915-19.916-48.353v-531.344q0-28.437 19.916-48.353t48.353-19.916h236.961q11.462 0 19.673 8.212 8.211 8.211 8.211 19.672 0 11.654-8.211 19.865-8.211 8.211-19.673 8.211H216.347q-4.616 0-8.462 3.847-3.847 3.846-3.847 8.462v531.344q0 4.616 3.847 8.463 3.846 3.846 8.462 3.846h236.961q11.462 0 19.673 8.211 8.211 8.212 8.211 19.673 0 11.653-8.211 19.865-8.211 8.211-19.673 8.211H216.347Zm488.039-305.961h-310.04q-11.654 0-19.865-8.211-8.212-8.211-8.212-19.865 0-11.461 8.212-19.673 8.211-8.211 19.865-8.211h310.04l-76.244-76.243q-8.179-7.988-8.371-19.333-.193-11.346 8.499-19.904 8.5-8.557 19.769-8.615 11.269-.058 20.109 8.59L787.504-502.11q10.379 10.379 10.379 24.22t-10.346 24.005L667.882-334.23q-8.689 8.497-19.843 8.382-11.153-.115-19.769-8.615-8.692-8.615-8.538-19.826.154-11.212 8.589-19.839l76.065-75.873Z"/></svg>