<svg xmlns="http://www.w3.org/2000/svg" viewBox="0 -960 960 960"><path d="M176.154-268.078q-11.634 0-19.855-8.225t-8.221-19.865q0-11.448 8.221-19.659 8.221-8.211 19.855-8.211h152.077q11.634 0 19.855 8.224 8.221 8.225 8.221 19.673 0 11.64-8.221 19.851-8.221 8.212-19.855 8.212H176.154Zm0-180q-11.634 0-19.855-8.128-8.221-8.129-8.221-19.769 0-11.64 8.221-19.852 8.221-8.211 19.855-8.211h380.038q11.442 0 19.663 8.225t8.221 19.865q0 11.64-8.221 19.755-8.221 8.115-19.663 8.115H176.154Zm0-179.807q-11.634 0-19.855-8.225-8.221-8.224-8.221-19.865 0-11.447 8.221-19.659 8.221-8.211 19.855-8.211h607.884q11.442 0 19.663 8.225t8.221 19.672q0 11.641-8.221 19.852t-19.663 8.211H176.154Z"/></svg>