<svg xmlns="http://www.w3.org/2000/svg" viewBox="0 -960 960 960"><path d="M176.263-188.078q-28.353 0-48.269-19.916-19.916-19.916-19.916-48.3v-447.412q0-28.384 19.916-48.3 19.916-19.916 48.353-19.916h191.306q13.741 0 26.435 5.355 12.693 5.354 22.105 14.878l55.729 55.729h311.815q28.353 0 48.269 19.916 19.916 19.915 19.916 48.353v371.344q0 28.437-19.916 48.353t-48.269 19.916H176.263Zm.084-55.96h607.306q5.385 0 8.847-3.462 3.462-3.462 3.462-8.847v-371.344q0-5.385-3.462-8.847-3.462-3.462-8.847-3.462H449l-72.5-72.5q-1.923-1.923-4.039-2.692-2.115-.77-4.423-.77H176.347q-5.385 0-8.847 3.462-3.462 3.462-3.462 8.847v447.306q0 5.385 3.462 8.847 3.462 3.462 8.847 3.462Zm-12.309 0v-471.924 471.924Zm350.233-168.078-50.809 51.001q-8.307 8.115-8.499 19.672-.193 11.558 8.403 20.058 8.596 8.499 19.865 8.499 11.269 0 19.961-8.499l94.383-94.556q10.386-10.223 10.386-23.986 0-13.762-10.346-24.265l-94.423-94.423q-8.307-8.115-19.769-8.307-11.461-.192-20.057 8.307-8.596 8.5-8.596 19.865 0 11.365 8.692 19.865l50.809 50.809H365.462q-11.654 0-19.769 8.211-8.115 8.211-8.115 19.865 0 11.654 8.115 19.769 8.115 8.115 19.769 8.115h148.809Z"/></svg>