<svg xmlns="http://www.w3.org/2000/svg" viewBox="0 -960 960 960"><path d="M250.462-282.885 86.616-446.539q-8.423-8.423-8.308-19.519.116-11.096 8.615-19.903 8.616-8.5 19.769-8.558 11.154-.057 19.961 8.558l148.424 148.616 13.847-13.847 39.422 39.229-29.692 29.578q-10.539 9.73-24.193 9.884-13.653.154-23.999-10.384Zm214.692 0L301.308-446.539q-7.807-7.807-8-19.211-.192-11.404 8.5-20.211 8.615-8.615 19.673-8.615 11.057 0 19.865 8.615l147.808 148.308 344.5-344.5q8.116-7.923 19.115-7.962 11-.038 19.808 8.269 8.499 8.308 8.807 19.461.308 11.154-8.307 19.769L513.346-282.885q-10.538 10.538-24.192 10.538t-24-10.538Zm10.153-176.346-39.845-39.23 182.885-183.077q8.115-8.115 19.518-8.058 11.404.058 20.211 8.558 8.308 8.807 8.154 20.019-.154 11.211-8.461 19.518l-182.462 182.27Z"/></svg>