<svg xmlns="http://www.w3.org/2000/svg" viewBox="0 -960 960 960"><path d="M769.75-478q-5.429 0-9.089-3-3.661-3-4.161-8-6.5-29-17.25-55.843-10.75-26.842-27.75-51.657-3-3.5-2.925-8.043.074-4.544 3.91-8.24 4.06-4.217 9.537-3.967 5.478.25 9.478 4.25 18 26.5 30.5 56.514 12.5 30.014 19 63.986 1 6.5-2.25 10.25t-9 3.75ZM521.5-151.772q0-5.421 3.5-9.574 3.5-4.154 8.5-5.154 28-5 54.843-15.25Q615.185-192 640-209q3.5-3 8.125-3t8.375 3.5q4 4.5 3.702 9.546-.297 5.046-4.202 8.454-26.5 18.5-57 31.5t-62.5 19.5q-6.5 1.5-10.75-2t-4.25-10.272ZM712.357-264q-2.857-3-3.357-7.75t2.5-8.25q17-25.157 27.75-51.829Q750-358.5 756.5-388q.5-4.5 4.5-7.5t8.5-3q6 0 9.25 3.75T781-385q-6.5 32.5-18.453 63.083-11.953 30.584-31.047 57.417-4 4-9.524 4.25-5.524.25-9.619-3.75ZM428.5-139.5Q320-159 249.25-242.75T178.5-438.537q0-126.36 88.562-214.911Q355.625-742 482-742h39l-80.859-80.859q-4.641-4.641-4.641-9.391t4.5-9.25q4.5-4.5 9-4.5t9 4.5l92.472 92.445q4.528 4.555 6.778 9.405t2.25 10.75q0 5.9-2.25 10.65t-6.775 9.275l-91.93 91.93Q453.5-612 449-612t-9-5q-5-4.5-5-9t5-9.5l81-81h-39q-115.836 0-196.918 81.082Q204-554.336 204-438.5q0 100.289 64.25 177.394 64.25 77.106 163.627 96.8 4.553 1.024 7.588 4.862 3.035 3.839 3.035 8.444 0 6-4 9.5t-10 2Z"/></svg>