<svg xmlns="http://www.w3.org/2000/svg" viewBox="0 96 960 960" fill="#0f0"><path d="M360.117 769.333q14.216 0 23.716-9.617 9.5-9.617 9.5-23.833 0-14.216-9.617-23.716-9.617-9.5-23.833-9.5-14.216 0-23.716 9.617-9.5 9.617-9.5 23.833 0 14.216 9.617 23.716 9.617 9.5 23.833 9.5Zm120 0q14.216 0 23.716-9.617 9.5-9.617 9.5-23.833 0-14.216-9.617-23.716-9.617-9.5-23.833-9.5-14.216 0-23.716 9.617-9.5 9.617-9.5 23.833 0 14.216 9.617 23.716 9.617 9.5 23.833 9.5Zm120 0q14.216 0 23.716-9.617 9.5-9.617 9.5-23.833 0-14.216-9.617-23.716-9.617-9.5-23.833-9.5-14.216 0-23.716 9.617-9.5 9.617-9.5 23.833 0 14.216 9.617 23.716 9.617 9.5 23.833 9.5Zm-162.45-216.999-61.334-61.667q-9.866-10-23.433-10t-23.567 10q-9.999 10-10.333 23.833-.333 13.833 9.667 23.833l85 85q10.044 10 23.855 10t23.811-10l169.667-170q9.667-10 9.5-23.833-.167-13.833-10.167-23.833-10-10-23.333-10-13.333 0-23.333 10l-146 146.667ZM480.177 976q-82.822 0-155.666-31.5t-127.178-85.833Q143 804.333 111.5 731.44 80 658.546 80 575.667q0-82.88 31.5-155.773Q143 347 197.333 293q54.334-54 127.227-85.5Q397.454 176 480.333 176q82.88 0 155.773 31.5Q709 239 763 293t85.5 127Q880 493 880 575.823q0 82.822-31.5 155.666T763 858.544q-54 54.21-127 85.833Q563 976 480.177 976Z"/></svg>