<svg xmlns="http://www.w3.org/2000/svg" viewBox="0 -960 960 960"><path d="M370.256-459.078q-11.64 0-19.851-8.221-8.212-8.221-8.212-19.855v-258.309l-94.616 94.617q-8.115 8.307-19.423 8.307-11.307 0-19.922-8.608-8.5-8.699-8.5-19.91 0-11.212 8.807-20.019l137.154-136.846q5.115-5.115 11.243-7.673 6.129-2.558 13-2.558 6.68 0 12.987 2.575 6.308 2.576 11.346 7.656l137.346 137.346q8.423 8.615 8.462 19.423.038 10.807-8.269 19.698-8.808 8.416-19.865 8.57-11.058.154-19.865-8.654l-93.924-93.924v258.694q0 11.47-8.225 19.581-8.225 8.11-19.673 8.11Zm220.308 336.654q-6.872 0-13.084-2.479-6.211-2.479-11.249-7.752L428.385-270.309q-8.423-8.422-8.462-19.326-.038-10.904 8.269-19.795 8.808-8.416 19.865-8.474 11.058-.057 19.865 8.558l94.424 94.424v-258.885q0-11.279 8.129-19.389 8.129-8.111 19.769-8.111 11.64 0 19.851 8.221 8.212 8.221 8.212 19.663v258.501l94.309-94.309q7.922-8.115 19.23-8.115 11.307 0 20.115 8.416 8.307 8.891 8.307 20.103 0 11.211-8.807 19.826L614.807-132.655q-5.308 5.308-11.34 7.769-6.032 2.462-12.903 2.462Z"/></svg>